<mxfile host="app.diagrams.net" modified="2024-03-25T20:32:26.073Z" agent="Mozilla/5.0 (Macintosh; Intel Mac OS X 10_15_7) AppleWebKit/605.1.15 (KHTML, like Gecko) Version/17.1 Safari/605.1.15" version="24.1.0" etag="K_YKkZW_4ffIVFg6iObI" type="github">
  <diagram name="Page-1" id="vjeug-VDnFI4ej3bEdgI">
    <mxGraphModel>
      <root>
        <mxCell id="0" />
        <mxCell id="1" parent="0" />
      </root>
    </mxGraphModel>
  </diagram>
</mxfile>
